<svg width="177" height="33" viewBox="0 0 177 33" fill="none" xmlns="http://www.w3.org/2000/svg">
<g clip-path="url(#clip0_1002_3)">
<path d="M17.6649 20.3854H5.716L3.92539 24.9652C3.85652 25.1489 3.73026 25.344 3.54661 25.5506C3.36295 25.7343 3.04156 25.8261 2.58243 25.8261H1.30835C1.10174 25.8261 0.918086 25.7572 0.75739 25.6195C0.619651 25.4588 0.550781 25.2751 0.550781 25.0685C0.550781 24.9537 0.596694 24.793 0.68852 24.5864L9.12504 2.85808C9.23982 2.60556 9.412 2.35304 9.64156 2.10051C9.87113 1.84799 10.2155 1.72173 10.6746 1.72173H12.7407C13.1998 1.72173 13.5442 1.84799 13.7737 2.10051C14.0033 2.35304 14.1755 2.60556 14.2903 2.85808L22.6923 24.5864C22.7842 24.793 22.8301 24.9537 22.8301 25.0685C22.8301 25.2751 22.7497 25.4588 22.589 25.6195C22.4513 25.7572 22.2791 25.8261 22.0725 25.8261H20.7984C20.3393 25.8261 20.0179 25.7343 19.8343 25.5506C19.6506 25.344 19.5243 25.1489 19.4555 24.9652L17.6649 20.3854ZM6.92122 17.2863H16.4597L11.7077 4.99304L6.92122 17.2863ZM41.0353 7.91999C41.2878 7.91999 41.5059 8.01182 41.6896 8.19547C41.8732 8.37912 41.9651 8.59721 41.9651 8.84973V24.8963C41.9651 25.1489 41.8732 25.367 41.6896 25.5506C41.5059 25.7343 41.2878 25.8261 41.0353 25.8261H39.7612C39.5087 25.8261 39.2906 25.7343 39.107 25.5506C38.9233 25.367 38.8315 25.1489 38.8315 24.8963V18.1816H29.1209V24.8963C29.1209 25.1489 29.0291 25.367 28.8454 25.5506C28.6618 25.7343 28.4437 25.8261 28.1911 25.8261H26.9171C26.6645 25.8261 26.4465 25.7457 26.2628 25.585C26.0791 25.4014 25.9873 25.1718 25.9873 24.8963V8.84973C25.9873 8.59721 26.0791 8.37912 26.2628 8.19547C26.4465 8.01182 26.6645 7.91999 26.9171 7.91999H28.1911C28.4437 7.91999 28.6618 8.01182 28.8454 8.19547C29.0291 8.37912 29.1209 8.59721 29.1209 8.84973V15.2202H38.8315V8.84973C38.8315 8.59721 38.9233 8.37912 39.107 8.19547C39.2906 8.01182 39.5087 7.91999 39.7612 7.91999H41.0353ZM61.0508 7.91999C61.3033 7.91999 61.5214 8.01182 61.7051 8.19547C61.8887 8.37912 61.9806 8.59721 61.9806 8.84973V9.95165C61.9806 10.2042 61.8887 10.4223 61.7051 10.6059C61.5214 10.7896 61.3033 10.8814 61.0508 10.8814H55.0936V24.8963C55.0936 25.1489 55.0018 25.367 54.8181 25.5506C54.6345 25.7343 54.4164 25.8261 54.1639 25.8261H52.8898C52.6373 25.8261 52.4192 25.7343 52.2355 25.5506C52.0519 25.367 51.96 25.1489 51.96 24.8963V10.8814H46.0028C45.7503 10.8814 45.5322 10.7896 45.3486 10.6059C45.1649 10.4223 45.0731 10.2042 45.0731 9.95165V8.84973C45.0731 8.59721 45.1649 8.37912 45.3486 8.19547C45.5322 8.01182 45.7503 7.91999 46.0028 7.91999H61.0508ZM78.8702 25.8261C78.6177 25.8261 78.3996 25.7343 78.216 25.5506C78.0323 25.367 77.9405 25.1489 77.9405 24.8963V13.3607L67.92 25.4473C67.7363 25.6998 67.4838 25.8261 67.1624 25.8261H65.9916C65.7391 25.8261 65.521 25.7343 65.3374 25.5506C65.1767 25.367 65.0963 25.1489 65.0963 24.8963V8.84973C65.0963 8.59721 65.1882 8.37912 65.3718 8.19547C65.5555 8.01182 65.7736 7.91999 66.0261 7.91999H67.3002C67.5527 7.91999 67.7708 8.01182 67.9544 8.19547C68.1381 8.37912 68.2299 8.59721 68.2299 8.84973V20.4887L78.2504 8.29878C78.3652 8.18399 78.4685 8.09217 78.5603 8.0233C78.6751 7.95443 78.8243 7.91999 79.008 7.91999H80.1443C80.3969 7.91999 80.6149 8.01182 80.7986 8.19547C80.9823 8.37912 81.0741 8.59721 81.0741 8.84973V24.8963C81.0741 25.1489 80.9823 25.367 80.7986 25.5506C80.6149 25.7343 80.3969 25.8261 80.1443 25.8261H78.8702ZM98.0593 18.8358C97.5084 19.8689 96.9344 20.8101 96.3376 21.6595C95.7407 22.5089 95.0864 23.2435 94.3748 23.8633C93.6631 24.4831 92.8597 24.9652 91.9644 25.3096C91.092 25.6539 90.1049 25.8261 89.003 25.8261H86.4892C86.2367 25.8261 86.0186 25.7343 85.835 25.5506C85.6513 25.367 85.5595 25.1489 85.5595 24.8963V21.2463C85.5595 20.9937 85.6513 20.7756 85.835 20.592C86.0186 20.4083 86.2367 20.3165 86.4892 20.3165H89.003C89.531 20.3165 90.0475 20.087 90.5525 19.6278C91.0576 19.1687 91.6085 18.3882 92.2054 17.2863L84.3887 2.92695C84.2969 2.76625 84.251 2.61704 84.251 2.4793C84.251 2.27269 84.3198 2.10052 84.4576 1.96278C84.6183 1.80208 84.8019 1.72173 85.0085 1.72173H89.7605C90.2197 1.72173 90.564 1.83652 90.7936 2.06608C91.0231 2.29565 91.1609 2.46782 91.2068 2.5826L95.5111 11.0536L99.8844 2.5826C99.9303 2.46782 100.068 2.29565 100.298 2.06608C100.527 1.83652 100.871 1.72173 101.331 1.72173H106.048C106.255 1.72173 106.427 1.80208 106.565 1.96278C106.725 2.10052 106.806 2.27269 106.806 2.4793C106.806 2.61704 106.76 2.76625 106.668 2.92695L98.0593 18.8358ZM117.493 26.1704C116.827 26.1704 116.241 26.1016 115.736 25.9638C115.231 25.8261 114.795 25.6539 114.428 25.4473C114.061 25.2407 113.751 25.0226 113.498 24.793C113.246 24.5405 113.039 24.3109 112.878 24.1043V31.439C112.878 31.6915 112.786 31.9096 112.603 32.0932C112.419 32.2769 112.201 32.3687 111.949 32.3687H107.61C107.357 32.3687 107.139 32.2769 106.956 32.0932C106.772 31.9096 106.68 31.6915 106.68 31.439V8.84973C106.68 8.59721 106.772 8.37912 106.956 8.19547C107.139 8.01182 107.357 7.91999 107.61 7.91999H111.776C112.029 7.91999 112.247 8.01182 112.431 8.19547C112.614 8.37912 112.706 8.59721 112.706 8.84973V9.64173C112.913 9.41217 113.131 9.17112 113.36 8.9186C113.613 8.66608 113.911 8.44799 114.256 8.26434C114.623 8.05773 115.059 7.89704 115.564 7.78225C116.092 7.64452 116.735 7.57565 117.493 7.57565C118.526 7.57565 119.501 7.73634 120.42 8.05773C121.338 8.35617 122.141 8.83825 122.83 9.50399C123.519 10.1468 124.07 10.9617 124.483 11.9489C124.919 12.936 125.16 14.1068 125.206 15.4612C125.229 15.8056 125.24 16.2762 125.24 16.873C125.24 17.4469 125.229 17.9061 125.206 18.2504C125.16 19.6049 124.919 20.7756 124.483 21.7628C124.07 22.7499 123.519 23.5763 122.83 24.2421C122.141 24.8849 121.338 25.3669 120.42 25.6883C119.501 26.0097 118.526 26.1704 117.493 26.1704ZM119.042 17.8372C119.111 17.1944 119.111 16.5516 119.042 15.9089C118.973 15.1054 118.709 14.4052 118.25 13.8083C117.791 13.2115 117.022 12.913 115.943 12.913C115.438 12.913 115.002 12.9934 114.634 13.1541C114.267 13.3148 113.957 13.5329 113.705 13.8083C113.475 14.0609 113.292 14.3478 113.154 14.6692C113.016 14.9906 112.924 15.3235 112.878 15.6678C112.832 16.0122 112.809 16.4139 112.809 16.873C112.809 17.3322 112.832 17.7339 112.878 18.0783C112.924 18.4226 113.016 18.7555 113.154 19.0769C113.292 19.3983 113.475 19.6967 113.705 19.9722C113.957 20.2247 114.267 20.4313 114.634 20.592C115.002 20.7527 115.438 20.833 115.943 20.833C117.022 20.833 117.791 20.5346 118.25 19.9377C118.709 19.3409 118.973 18.6407 119.042 17.8372ZM143.415 4.51095C144.723 4.6946 145.963 5.01599 147.134 5.47512C148.305 5.9113 149.338 6.50817 150.233 7.26573C151.128 8.0233 151.829 8.94156 152.334 10.0205C152.862 11.0765 153.126 12.3276 153.126 13.7739C153.126 15.2202 152.862 16.4828 152.334 17.5617C151.829 18.6177 151.128 19.5245 150.233 20.2821C149.338 21.0396 148.305 21.648 147.134 22.1071C145.963 22.5433 144.723 22.8532 143.415 23.0369V25.585C143.415 25.8376 143.323 26.0556 143.139 26.2393C142.956 26.4229 142.738 26.5148 142.485 26.5148H137.974C137.722 26.5148 137.503 26.4229 137.32 26.2393C137.136 26.0556 137.044 25.8376 137.044 25.585V23.0369C135.736 22.8532 134.496 22.5433 133.325 22.1071C132.155 21.648 131.122 21.0396 130.226 20.2821C129.331 19.5245 128.619 18.6177 128.091 17.5617C127.586 16.4828 127.334 15.2202 127.334 13.7739C127.334 12.3276 127.586 11.0765 128.091 10.0205C128.619 8.94156 129.331 8.0233 130.226 7.26573C131.122 6.50817 132.155 5.9113 133.325 5.47512C134.496 5.01599 135.736 4.6946 137.044 4.51095V1.96278C137.044 1.71025 137.136 1.49217 137.32 1.30851C137.503 1.12486 137.722 1.03304 137.974 1.03304H142.485C142.738 1.03304 142.956 1.12486 143.139 1.30851C143.323 1.49217 143.415 1.71025 143.415 1.96278V4.51095ZM137.044 10.0205C136.379 10.1583 135.828 10.3534 135.391 10.6059C134.978 10.8584 134.645 11.1569 134.393 11.5012C134.14 11.8226 133.957 12.1784 133.842 12.5687C133.75 12.959 133.704 13.3607 133.704 13.7739C133.704 14.1871 133.75 14.5889 133.842 14.9791C133.957 15.3694 134.14 15.7367 134.393 16.081C134.645 16.4024 134.978 16.6894 135.391 16.9419C135.828 17.1944 136.379 17.3896 137.044 17.5273V10.0205ZM146.755 13.7739C146.755 13.3607 146.698 12.959 146.583 12.5687C146.491 12.1784 146.319 11.8226 146.066 11.5012C145.814 11.1569 145.47 10.8584 145.033 10.6059C144.62 10.3534 144.081 10.1583 143.415 10.0205V17.5273C144.081 17.3896 144.62 17.1944 145.033 16.9419C145.47 16.6894 145.814 16.4024 146.066 16.081C146.319 15.7367 146.491 15.3694 146.583 14.9791C146.698 14.5889 146.755 14.1871 146.755 13.7739ZM167.501 18.8358C166.95 19.8689 166.376 20.8101 165.779 21.6595C165.182 22.5089 164.528 23.2435 163.816 23.8633C163.104 24.4831 162.301 24.9652 161.406 25.3096C160.533 25.6539 159.546 25.8261 158.444 25.8261H155.931C155.678 25.8261 155.46 25.7343 155.276 25.5506C155.093 25.367 155.001 25.1489 155.001 24.8963V21.2463C155.001 20.9937 155.093 20.7756 155.276 20.592C155.46 20.4083 155.678 20.3165 155.931 20.3165H158.444C158.972 20.3165 159.489 20.087 159.994 19.6278C160.499 19.1687 161.05 18.3882 161.647 17.2863L153.83 2.92695C153.738 2.76625 153.692 2.61704 153.692 2.4793C153.692 2.27269 153.761 2.10052 153.899 1.96278C154.06 1.80208 154.243 1.72173 154.45 1.72173H159.202C159.661 1.72173 160.005 1.83652 160.235 2.06608C160.464 2.29565 160.602 2.46782 160.648 2.5826L164.952 11.0536L169.326 2.5826C169.372 2.46782 169.509 2.29565 169.739 2.06608C169.968 1.83652 170.313 1.72173 170.772 1.72173H175.49C175.696 1.72173 175.868 1.80208 176.006 1.96278C176.167 2.10052 176.247 2.27269 176.247 2.4793C176.247 2.61704 176.201 2.76625 176.109 2.92695L167.501 18.8358Z" fill="#3F3F3F"/>
</g>
<defs>
<clipPath id="clip0_1002_3">
<rect width="176.478" height="33" fill="white"/>
</clipPath>
</defs>
</svg>
