<?xml version="1.0" standalone="no"?>
<!DOCTYPE svg PUBLIC "-//W3C//DTD SVG 20010904//EN"
 "http://www.w3.org/TR/2001/REC-SVG-20010904/DTD/svg10.dtd">
<svg version="1.0" xmlns="http://www.w3.org/2000/svg"
 width="700.000000pt" height="700.000000pt" viewBox="0 0 700.000000 700.000000"
 preserveAspectRatio="xMidYMid meet">
<metadata>
Created by potrace 1.14, written by Peter Selinger 2001-2017
</metadata>
<g transform="translate(0.000000,700.000000) scale(0.100000,-0.100000)"
fill="#000000" stroke="none">
<path d="M1250 6993 c-141 -15 -348 -77 -480 -143 -386 -196 -644 -533 -742
-971 l-23 -104 0 -2275 0 -2275 23 -104 c128 -569 527 -968 1095 -1093 l102
-23 2275 0 2275 0 100 22 c137 31 213 56 331 113 395 187 668 536 766 983 l23
102 0 2275 0 2275 -23 102 c-99 447 -371 796 -766 983 -118 56 -164 73 -306
108 l-105 27 -2255 1 c-1240 0 -2271 -1 -2290 -3z m1354 -2386 c38 -40 70
-117 445 -1087 222 -575 404 -1058 404 -1074 1 -51 -31 -66 -137 -66 -98 0
-128 10 -157 50 -11 14 -57 122 -103 240 l-84 215 -566 0 -567 0 -87 -220
c-48 -122 -94 -231 -103 -242 -23 -33 -61 -43 -157 -43 -105 0 -132 13 -132
64 0 38 798 2101 830 2146 41 57 51 60 219 60 l154 0 41 -43z m1567 20 c29
-19 67 -87 244 -435 115 -226 213 -408 217 -404 4 4 97 181 207 394 110 212
207 398 217 413 34 52 51 55 334 55 247 0 261 -1 280 -20 11 -11 20 -32 20
-46 0 -33 -846 -1599 -948 -1754 -102 -157 -246 -300 -357 -357 -147 -76 -193
-85 -427 -91 l-207 -4 -31 30 -30 30 0 202 0 202 29 29 29 29 152 0 c169 0
193 6 259 65 44 40 138 173 146 208 4 16 -96 210 -364 702 -246 452 -371 690
-371 709 0 16 7 38 17 48 15 17 37 18 283 18 261 0 268 0 301 -23z"/>
<path d="M2188 3782 c-119 -306 -220 -565 -223 -574 -7 -17 18 -18 439 -18
245 0 446 2 446 5 0 7 -429 1115 -438 1130 -4 9 -89 -197 -224 -543z"/>
</g>
</svg>
